/* XPM */
static char *e335be6c44794fdd9c0d56160c07527acZoNJULgsug64sTc[] = {
/* columns rows colors chars-per-pixel */
"64 64 24 1 ",
"  c #BFBEBB",
". c #C2C0BD",
"X c #C4C1BD",
"o c gray76",
"O c #C3C3C2",
"+ c #C3C3C3",
"@ c #C4C4C3",
"# c #C5C5C5",
"$ c #C8C7C5",
"% c #C8C8C7",
"& c #C7C7C8",
"* c #C8C8C8",
"= c #CCCBCB",
"- c #CCCCCB",
"; c #CCCBCC",
": c gray80",
"> c #D0CFCF",
", c #CFD0CE",
"< c #D0D0CF",
"1 c #D0CFD0",
"2 c #CFD0D0",
"3 c #D0D0D0",
"4 c LightGray",
"5 c gray83",
/* pixels */
"*333::*:*:*::#:::5*#*:*#:=:*::*#3:#*#:#*:3*:=:::::*##**#:::3::**",
":*::::#*33**##::3##:3:*:5-**3**::#:*333:3#*X:::#*<:**:*3:*:*###*",
"#33*o#:3:#*;::3***:::**:*#*3:#::#*###::**:3>:#:*3#*#::3:*::****#",
":::#*::#*:*:*:#***:#*::**33:#3:#***:::#*::*:#***o-*:53**;o3**#3:",
"**#*:****#:::#*:*#*::::::*#*3:*:3:3::*:3**##***:*:*3;##*:::#*:3*",
"#***#*:3:3:#:*:-:*2:=*#::::::#***::*:3***#33:::*:53*#::::##:::*:",
"*:::::33**#3:*:*#=*3**3:*3*:****33**:*#3:33#*#*::**#:3::$*33%=**",
":3**::::*#::#:**:3::#::#3*#**::**:***#:*#:o:**3::***:#*:::*%@::3",
"::::*#**::*-:***3:*#*3#**#:::::*::#**::#::*:::::##:**::#:#:*:**:",
"#**#***3*:353*:*:***3:*:::*##**3*::::::33#:3*#:***:*::*#:#*:::::",
"#:*#3*3***#*#**-*:o*::#*:*:#::::****:*:::#3***#**::::**::3:**:**",
":3*::3*##*:::*:*::*3*#o:**#***333**:*:::*#**:*:::#**::**:::**###",
"*##33##*:::#*:#*:#3**:::*:::****##-::5::*:*:*:5**:3:::*:3#****:3",
"#*:##*:::3#*3:*53:#*3:::*:3:*::**3<#:::#:3:*:33#::**:::3*#::**:*",
"::::3*:3:#*#:*:*##*::**:::*#*:*:3:o*3:.@*#*:3*o*3*:3::o#*:3*:::*",
":*#:#*:5o:*::*:**:****3:3**::3***%:3*#%-#:**:#****:##**:5***3##:",
":*::****::*:***::3:3:35*#o*:::::#::*::::*:::***:3:**:*::*#*:#*:*",
"*#***::***:33*::*#:*:3#**333::*#3****#::*:*:3:5:*#::**::::*::3*3",
"#*:3*#*:::***$:***:::#**:**#:@*:*%::::**333:*#:o#:5:*3**##:33#**",
":33#:53*-*:::*@:3:*:**:3:#::**33--:*:::*:*##*:**::*##:#*:3:*##*:",
"::o*:***3*:@:*:3:*:3*,**#3-**:*#***33##::##:*:*:33*:::%3::#*#:3:",
"#:#::::*#**:333:#*:*o:***#@:***:*::##:5:#*33***:3##53**:::#:*::3",
"*:*:3*:*35#<*###****:::#*:3*:::*##*:3**#*33*#::3*#:*##**:#::*::*",
"**:3*#**:#*:#**::3::::*#*****:#:*::#%**-*:#**3#**:#3::*:*3:*::**",
"#**:#*::****3:#:*#:*::*:**::*:3:*:#:***:::*:****:#*:#::::*#*:#:*",
":*::*:-3**333#33:::#::3*:::::3***:*:*3:5::::3*::**:***::*::*5::#",
"*:::::3#:***#3::*3:53:##***:3**:*:#*:3*%@:3#**53:*:*33*:3*#3##**",
"::***3#**#*#:**##***#*#*:::5#**3*3*::**3::o****##:*3*:#***:*;:::",
"*#*::#*::*::::**::#**#:3:*:*#***#*#:#*::#*::*3:33*:*#:#::#*5*:*:",
"3*:**#::*:**:=33***::3:*33#*:3:%:33:-::#3*%:::#:**:*3:#:*#:#*:::",
"#3***:::***:::****#%*:#:*##*::o:3**:***:*#:3*o*:*::#*#*:*::::*:3",
"#**::::**:3::*::**:33**:*::*:*::#**#**:#**>:*:3***:**::*::*:****",
"**:***o*:5**#::3*::##*:*:::5:::**333:**:*:*:3***:5:**::**%*:*:::",
"**::::::3**X:3:#*3*:*:*3:#***##*:*::::**3:**##::3#o:3:*:3-**::33",
":3***:*:*:3-:#:#3#*#::3:*::****##:3*o*:3:#**::3**#:::**:3**3*:**",
":#*:*#*:33::#***#:::33:**#3:*#:::::#::3##:*:*3#***:**::***3**#**",
"5:3*:3:***##***:*:#3:#o*:::##:3*:*#-:**&*#:::**:*%#*::::*-##3*:*",
"**o*:***:#:3:::**33*#**::*#::::*#**:##::::3%**:*2::::*:*::#:3***",
"5**3*:*:3:3o*#*:3::*:3::#*:1%-***;:::*:3**#:3:::#3:::*:#3*3::#**",
"#**#:*:33:*3::***##*:*::::**@::<::::::***#::#*:#*:*:#::3:*##::3*",
":3***:*####:##**:**:***#:*:*:$::33::*#**::******:3**#:3#**:3::**",
"*:::::333:::*::*::**::**:#;:::::#******:*:353*;*:#**3***-::*#*:3",
":***:#**:**::*#*:*:::**::3:**:*:#:*#3:3*;-#*#::::*3:**:***:*3:3*",
":#***:5:*3**#:=:**:#*::*::***#o*:3:::::*#*::3*#:***#::*#*:#:**3:",
"*#:::5:#:*#=5:*##3*33:*:3#*#***5:##33*#*::3**:*3::::**:3**:*****",
"*::#::-#:*>3:o%::::3:**5*#**:*:*#*:###*::3**33#:o***:33#*:3**::*",
":*o*3: @*#>*#:3*****##:*o:3:*::*::::3*:3*:o:*#*#*33:*#*#3:##*:*:",
":*:3*#*:::=***##:3:$*::#*:*#3##*:*#:#::***::*#*:::*#*:*5*:**::**",
"*:**::3**#:*:::::*#**:#3:**:#*:***:3:**:33##*:3:**%**#3*#**:::::",
"3**:*#:**:33:*#:**:****:#:**:3*3:****::*:#*533*#::::#:*::<33:*%*",
"**:::::*33:***#*::1::::**#:35***#*::*#*:**3**##:5:*#*:*::***:#*:",
":*:*:3****##:#*;3*#*:5:*:33:##*::33#*53**:***3::###3:::3*#3:#*:3",
"*#*3:o*::##:**33**:::*#3::#*#*3:33o#***#:3*:3*#:#::3#3**#3**::*#",
":::#*35**:33:*3**:*3:#:**:#:*-::#*#::&***:#:o*****:*#:***##-***3",
"##*33*##:::*#:3#***:#**#*&::*:***:*:3::3::o*3:**:::::::#::<*:::*",
"*::#***:*:#**:#***:**:#::3=:::*::**3*#:**##3**333:::::*#:**%*:#:",
"*:*:**#:33**:****::**:*:3#-**#::**3*#*:***::*::*#o:#:3:3*:3:*:3:",
"*::**333:*3::**:*::**:::*::*:33#*:3#:::33::::*:**::*::3*:::*:3**",
"::#*::#*@::#**3::*:*33:3#**::*##*:;#::*::#*:#::::3:5:*##***::**3",
"*3::2**3::o****#*:*3**#o*3::3::**:#*:***:#*#:*##*:**##**:*:3#:%3",
"**#:#*3:#::**3:3::::*:*:*:*:##**:::3%**:**3:::*:3:****:3:::*****",
":3:::::#3*#:>:*3#**#::#:**:#*:::*:*#*:***:**:*3:***:*3:*3:**:3-%",
":**:#**:##::*o*::::#*#*:*:3***#***-:3:::***:3:**#*#$;:#:*#**:*o:",
"#****:-*:*3::35:*#:*::3:3:*=*:*:::3::**#::53:*::::<33**::::::*:*"
};
